<svg width="23" height="23" viewBox="0 0 23 23" fill="none" xmlns="http://www.w3.org/2000/svg">
<g id="Icon Alarm">
<circle id="Oval" cx="11.5" cy="11.5" r="11.5" fill="#D95656"/>
<path id="!" d="M12.3891 5.598L12.2091 13.86H10.7511L10.5531 5.598H12.3891ZM11.4891 15.714C11.8491 15.714 12.1491 15.834 12.3891 16.074C12.6291 16.314 12.7491 16.608 12.7491 16.956C12.7491 17.304 12.6291 17.604 12.3891 17.856C12.1491 18.096 11.8491 18.216 11.4891 18.216C11.1411 18.216 10.8471 18.096 10.6071 17.856C10.3671 17.604 10.2471 17.304 10.2471 16.956C10.2471 16.608 10.3671 16.314 10.6071 16.074C10.8471 15.834 11.1411 15.714 11.4891 15.714Z" fill="white"/>
</g>
</svg>
