<svg width="225" height="225" viewBox="0 0 225 225" fill="none" xmlns="http://www.w3.org/2000/svg">
<circle cx="112.108" cy="112.233" r="88.3929" fill="#B88AC4" fill-opacity="0.333847"/>
<circle cx="112.108" cy="112.233" r="64.2857" fill="#B88AC4" fill-opacity="0.437462"/>
<circle cx="112.5" cy="112.5" r="112.5" fill="#B88AC4" fill-opacity="0.0948998"/>
<path d="M150.061 94.1924L109.671 137.637C108.544 138.848 107.05 139.609 105.337 139.837C105.321 139.839 105.273 139.842 105.248 139.846C104.884 139.888 104.882 139.953 104.324 139.953V140H104.261H104.184C103.928 140 103.655 139.935 103.3 139.895C103.272 139.89 103.242 139.863 103.207 139.859C101.502 139.632 100.008 138.861 98.8842 137.649L75.9421 112.966C74.6273 111.553 73.939 109.708 74.0042 107.773C74.0695 105.839 74.88 104.045 76.2867 102.726C77.6305 101.466 79.3808 100.771 81.2149 100.771C83.2353 100.771 85.1072 101.587 86.4861 103.071L103.463 121.331C103.885 121.786 104.672 121.785 105.094 121.331L139.518 84.3003C140.898 82.8165 142.772 82 144.794 82C146.627 82 148.375 82.6921 149.714 83.9489C152.62 86.679 152.777 91.274 150.061 94.1924Z" fill="black"/>
</svg>
