<svg width="120" height="116" viewBox="0 0 120 116" fill="none" xmlns="http://www.w3.org/2000/svg">
<mask id="mask0_0_5716" style="mask-type:alpha" maskUnits="userSpaceOnUse" x="61" y="0" width="11" height="10">
<path fill-rule="evenodd" clip-rule="evenodd" d="M61 0H72V10H61V0Z" fill="white"/>
</mask>
<g mask="url(#mask0_0_5716)">
<path fill-rule="evenodd" clip-rule="evenodd" d="M63.0911 9.98989L66.4903 8.2882L69.8837 10L69.2481 6.38339L72.0002 3.82781L68.1986 3.29224L66.5088 0L64.7994 3.28466L61 3.80608L63.7446 6.37379L63.0911 9.98989Z" fill="#B88AC4"/>
</g>
<mask id="mask1_0_5716" style="mask-type:alpha" maskUnits="userSpaceOnUse" x="77" y="0" width="11" height="10">
<path fill-rule="evenodd" clip-rule="evenodd" d="M77 0H88V10H77V0Z" fill="white"/>
</mask>
<g mask="url(#mask1_0_5716)">
<path fill-rule="evenodd" clip-rule="evenodd" d="M79.0911 9.98989L82.4903 8.2882L85.8837 10L85.2481 6.38339L88.0002 3.82781L84.1986 3.29224L82.5088 0L80.7994 3.28466L77 3.80608L79.7446 6.37379L79.0911 9.98989Z" fill="#B88AC4"/>
</g>
<mask id="mask2_0_5716" style="mask-type:alpha" maskUnits="userSpaceOnUse" x="61" y="16" width="11" height="10">
<path fill-rule="evenodd" clip-rule="evenodd" d="M61 16H72V26H61V16Z" fill="white"/>
</mask>
<g mask="url(#mask2_0_5716)">
<path fill-rule="evenodd" clip-rule="evenodd" d="M63.0911 25.9899L66.4903 24.2882L69.8837 26L69.2481 22.3834L72.0002 19.8278L68.1986 19.2922L66.5088 16L64.7994 19.2847L61 19.8061L63.7446 22.3738L63.0911 25.9899Z" fill="#B88AC4"/>
</g>
<mask id="mask3_0_5716" style="mask-type:alpha" maskUnits="userSpaceOnUse" x="77" y="16" width="11" height="10">
<path fill-rule="evenodd" clip-rule="evenodd" d="M77 16H88V26H77V16Z" fill="white"/>
</mask>
<g mask="url(#mask3_0_5716)">
<path fill-rule="evenodd" clip-rule="evenodd" d="M79.0911 25.9899L82.4903 24.2882L85.8837 26L85.2481 22.3834L88.0002 19.8278L84.1986 19.2922L82.5088 16L80.7994 19.2847L77 19.8061L79.7446 22.3738L79.0911 25.9899Z" fill="#B88AC4"/>
</g>
<mask id="mask4_0_5716" style="mask-type:alpha" maskUnits="userSpaceOnUse" x="93" y="0" width="11" height="10">
<path fill-rule="evenodd" clip-rule="evenodd" d="M93 0H104V10H93V0Z" fill="white"/>
</mask>
<g mask="url(#mask4_0_5716)">
<path fill-rule="evenodd" clip-rule="evenodd" d="M95.0911 9.98989L98.4903 8.2882L101.884 10L101.248 6.38339L104 3.82781L100.199 3.29224L98.5088 0L96.7994 3.28466L93 3.80608L95.7446 6.37379L95.0911 9.98989Z" fill="#B88AC4"/>
</g>
<mask id="mask5_0_5716" style="mask-type:alpha" maskUnits="userSpaceOnUse" x="109" y="0" width="11" height="10">
<path fill-rule="evenodd" clip-rule="evenodd" d="M109 0H120V10H109V0Z" fill="white"/>
</mask>
<g mask="url(#mask5_0_5716)">
<path fill-rule="evenodd" clip-rule="evenodd" d="M111.091 9.98989L114.49 8.2882L117.884 10L117.248 6.38339L120 3.82781L116.199 3.29224L114.509 0L112.799 3.28466L109 3.80608L111.745 6.37379L111.091 9.98989Z" fill="#B88AC4"/>
</g>
<mask id="mask6_0_5716" style="mask-type:alpha" maskUnits="userSpaceOnUse" x="93" y="16" width="11" height="10">
<path fill-rule="evenodd" clip-rule="evenodd" d="M93 16H104V26H93V16Z" fill="white"/>
</mask>
<g mask="url(#mask6_0_5716)">
<path fill-rule="evenodd" clip-rule="evenodd" d="M95.0911 25.9899L98.4903 24.2882L101.884 26L101.248 22.3834L104 19.8278L100.199 19.2922L98.5088 16L96.7994 19.2847L93 19.8061L95.7446 22.3738L95.0911 25.9899Z" fill="#B88AC4"/>
</g>
<mask id="mask7_0_5716" style="mask-type:alpha" maskUnits="userSpaceOnUse" x="109" y="16" width="11" height="10">
<path fill-rule="evenodd" clip-rule="evenodd" d="M109 16H120V26H109V16Z" fill="white"/>
</mask>
<g mask="url(#mask7_0_5716)">
<path fill-rule="evenodd" clip-rule="evenodd" d="M111.091 25.9899L114.49 24.2882L117.884 26L117.248 22.3834L120 19.8278L116.199 19.2922L114.509 16L112.799 19.2847L109 19.8061L111.745 22.3738L111.091 25.9899Z" fill="#B88AC4"/>
</g>
<mask id="mask8_0_5716" style="mask-type:alpha" maskUnits="userSpaceOnUse" x="61" y="31" width="11" height="10">
<path fill-rule="evenodd" clip-rule="evenodd" d="M61 31H72V41H61V31Z" fill="white"/>
</mask>
<g mask="url(#mask8_0_5716)">
<path fill-rule="evenodd" clip-rule="evenodd" d="M63.0911 40.9899L66.4903 39.2882L69.8837 41L69.2481 37.3834L72.0002 34.8278L68.1986 34.2922L66.5088 31L64.7994 34.2847L61 34.8061L63.7446 37.3738L63.0911 40.9899Z" fill="#B88AC4"/>
</g>
<mask id="mask9_0_5716" style="mask-type:alpha" maskUnits="userSpaceOnUse" x="77" y="31" width="11" height="10">
<path fill-rule="evenodd" clip-rule="evenodd" d="M77 31H88V41H77V31Z" fill="white"/>
</mask>
<g mask="url(#mask9_0_5716)">
<path fill-rule="evenodd" clip-rule="evenodd" d="M79.0911 40.9899L82.4903 39.2882L85.8837 41L85.2481 37.3834L88.0002 34.8278L84.1986 34.2922L82.5088 31L80.7994 34.2847L77 34.8061L79.7446 37.3738L79.0911 40.9899Z" fill="#B88AC4"/>
</g>
<mask id="mask10_0_5716" style="mask-type:alpha" maskUnits="userSpaceOnUse" x="61" y="45" width="11" height="10">
<path fill-rule="evenodd" clip-rule="evenodd" d="M61 45H72V55H61V45Z" fill="white"/>
</mask>
<g mask="url(#mask10_0_5716)">
<path fill-rule="evenodd" clip-rule="evenodd" d="M63.0911 54.9899L66.4903 53.2882L69.8837 55L69.2481 51.3834L72.0002 48.8278L68.1986 48.2922L66.5088 45L64.7994 48.2847L61 48.8061L63.7446 51.3738L63.0911 54.9899Z" fill="#B88AC4"/>
</g>
<mask id="mask11_0_5716" style="mask-type:alpha" maskUnits="userSpaceOnUse" x="77" y="45" width="11" height="10">
<path fill-rule="evenodd" clip-rule="evenodd" d="M77 45H88V55H77V45Z" fill="white"/>
</mask>
<g mask="url(#mask11_0_5716)">
<path fill-rule="evenodd" clip-rule="evenodd" d="M79.0911 54.9899L82.4903 53.2882L85.8837 55L85.2481 51.3834L88.0002 48.8278L84.1986 48.2922L82.5088 45L80.7994 48.2847L77 48.8061L79.7446 51.3738L79.0911 54.9899Z" fill="#B88AC4"/>
</g>
<mask id="mask12_0_5716" style="mask-type:alpha" maskUnits="userSpaceOnUse" x="93" y="31" width="11" height="10">
<path fill-rule="evenodd" clip-rule="evenodd" d="M93 31H104V41H93V31Z" fill="white"/>
</mask>
<g mask="url(#mask12_0_5716)">
<path fill-rule="evenodd" clip-rule="evenodd" d="M95.0911 40.9899L98.4903 39.2882L101.884 41L101.248 37.3834L104 34.8278L100.199 34.2922L98.5088 31L96.7994 34.2847L93 34.8061L95.7446 37.3738L95.0911 40.9899Z" fill="#B88AC4"/>
</g>
<mask id="mask13_0_5716" style="mask-type:alpha" maskUnits="userSpaceOnUse" x="109" y="31" width="11" height="10">
<path fill-rule="evenodd" clip-rule="evenodd" d="M109 31H120V41H109V31Z" fill="white"/>
</mask>
<g mask="url(#mask13_0_5716)">
<path fill-rule="evenodd" clip-rule="evenodd" d="M111.091 40.9899L114.49 39.2882L117.884 41L117.248 37.3834L120 34.8278L116.199 34.2922L114.509 31L112.799 34.2847L109 34.8061L111.745 37.3738L111.091 40.9899Z" fill="#B88AC4"/>
</g>
<mask id="mask14_0_5716" style="mask-type:alpha" maskUnits="userSpaceOnUse" x="93" y="45" width="11" height="10">
<path fill-rule="evenodd" clip-rule="evenodd" d="M93 45H104V55H93V45Z" fill="white"/>
</mask>
<g mask="url(#mask14_0_5716)">
<path fill-rule="evenodd" clip-rule="evenodd" d="M95.0911 54.9899L98.4903 53.2882L101.884 55L101.248 51.3834L104 48.8278L100.199 48.2922L98.5088 45L96.7994 48.2847L93 48.8061L95.7446 51.3738L95.0911 54.9899Z" fill="#B88AC4"/>
</g>
<mask id="mask15_0_5716" style="mask-type:alpha" maskUnits="userSpaceOnUse" x="109" y="45" width="11" height="10">
<path fill-rule="evenodd" clip-rule="evenodd" d="M109 45H120V55H109V45Z" fill="white"/>
</mask>
<g mask="url(#mask15_0_5716)">
<path fill-rule="evenodd" clip-rule="evenodd" d="M111.091 54.9899L114.49 53.2882L117.884 55L117.248 51.3834L120 48.8278L116.199 48.2922L114.509 45L112.799 48.2847L109 48.8061L111.745 51.3738L111.091 54.9899Z" fill="#B88AC4"/>
</g>
<mask id="mask16_0_5716" style="mask-type:alpha" maskUnits="userSpaceOnUse" x="0" y="0" width="11" height="10">
<path fill-rule="evenodd" clip-rule="evenodd" d="M0 0H11V10H0V0Z" fill="white"/>
</mask>
<g mask="url(#mask16_0_5716)">
<path fill-rule="evenodd" clip-rule="evenodd" d="M2.09111 9.98989L5.4903 8.2882L8.88367 10L8.24814 6.38339L11.0002 3.82781L7.19861 3.29224L5.5088 0L3.79943 3.28466L0 3.80608L2.74462 6.37379L2.09111 9.98989Z" fill="#B88AC4"/>
</g>
<mask id="mask17_0_5716" style="mask-type:alpha" maskUnits="userSpaceOnUse" x="16" y="0" width="11" height="10">
<path fill-rule="evenodd" clip-rule="evenodd" d="M16 0H27V10H16V0Z" fill="white"/>
</mask>
<g mask="url(#mask17_0_5716)">
<path fill-rule="evenodd" clip-rule="evenodd" d="M18.0911 9.98989L21.4903 8.2882L24.8837 10L24.2481 6.38339L27.0002 3.82781L23.1986 3.29224L21.5088 0L19.7994 3.28466L16 3.80608L18.7446 6.37379L18.0911 9.98989Z" fill="#B88AC4"/>
</g>
<mask id="mask18_0_5716" style="mask-type:alpha" maskUnits="userSpaceOnUse" x="0" y="16" width="11" height="10">
<path fill-rule="evenodd" clip-rule="evenodd" d="M0 16H11V26H0V16Z" fill="white"/>
</mask>
<g mask="url(#mask18_0_5716)">
<path fill-rule="evenodd" clip-rule="evenodd" d="M2.09111 25.9899L5.4903 24.2882L8.88367 26L8.24814 22.3834L11.0002 19.8278L7.19861 19.2922L5.5088 16L3.79943 19.2847L0 19.8061L2.74462 22.3738L2.09111 25.9899Z" fill="#B88AC4"/>
</g>
<mask id="mask19_0_5716" style="mask-type:alpha" maskUnits="userSpaceOnUse" x="16" y="16" width="11" height="10">
<path fill-rule="evenodd" clip-rule="evenodd" d="M16 16H27V26H16V16Z" fill="white"/>
</mask>
<g mask="url(#mask19_0_5716)">
<path fill-rule="evenodd" clip-rule="evenodd" d="M18.0911 25.9899L21.4903 24.2882L24.8837 26L24.2481 22.3834L27.0002 19.8278L23.1986 19.2922L21.5088 16L19.7994 19.2847L16 19.8061L18.7446 22.3738L18.0911 25.9899Z" fill="#B88AC4"/>
</g>
<mask id="mask20_0_5716" style="mask-type:alpha" maskUnits="userSpaceOnUse" x="32" y="0" width="11" height="10">
<path fill-rule="evenodd" clip-rule="evenodd" d="M32 0H43V10H32V0Z" fill="white"/>
</mask>
<g mask="url(#mask20_0_5716)">
<path fill-rule="evenodd" clip-rule="evenodd" d="M34.0911 9.98989L37.4903 8.2882L40.8837 10L40.2481 6.38339L43.0002 3.82781L39.1986 3.29224L37.5088 0L35.7994 3.28466L32 3.80608L34.7446 6.37379L34.0911 9.98989Z" fill="#B88AC4"/>
</g>
<mask id="mask21_0_5716" style="mask-type:alpha" maskUnits="userSpaceOnUse" x="46" y="0" width="11" height="10">
<path fill-rule="evenodd" clip-rule="evenodd" d="M46 0H57V10H46V0Z" fill="white"/>
</mask>
<g mask="url(#mask21_0_5716)">
<path fill-rule="evenodd" clip-rule="evenodd" d="M48.0911 9.98989L51.4903 8.2882L54.8837 10L54.2481 6.38339L57.0002 3.82781L53.1986 3.29224L51.5088 0L49.7994 3.28466L46 3.80608L48.7446 6.37379L48.0911 9.98989Z" fill="#B88AC4"/>
</g>
<mask id="mask22_0_5716" style="mask-type:alpha" maskUnits="userSpaceOnUse" x="32" y="16" width="11" height="10">
<path fill-rule="evenodd" clip-rule="evenodd" d="M32 16H43V26H32V16Z" fill="white"/>
</mask>
<g mask="url(#mask22_0_5716)">
<path fill-rule="evenodd" clip-rule="evenodd" d="M34.0911 25.9899L37.4903 24.2882L40.8837 26L40.2481 22.3834L43.0002 19.8278L39.1986 19.2922L37.5088 16L35.7994 19.2847L32 19.8061L34.7446 22.3738L34.0911 25.9899Z" fill="#B88AC4"/>
</g>
<mask id="mask23_0_5716" style="mask-type:alpha" maskUnits="userSpaceOnUse" x="46" y="16" width="11" height="10">
<path fill-rule="evenodd" clip-rule="evenodd" d="M46 16H57V26H46V16Z" fill="white"/>
</mask>
<g mask="url(#mask23_0_5716)">
<path fill-rule="evenodd" clip-rule="evenodd" d="M48.0911 25.9899L51.4903 24.2882L54.8837 26L54.2481 22.3834L57.0002 19.8278L53.1986 19.2922L51.5088 16L49.7994 19.2847L46 19.8061L48.7446 22.3738L48.0911 25.9899Z" fill="#B88AC4"/>
</g>
<mask id="mask24_0_5716" style="mask-type:alpha" maskUnits="userSpaceOnUse" x="0" y="31" width="11" height="10">
<path fill-rule="evenodd" clip-rule="evenodd" d="M0 31H11V41H0V31Z" fill="white"/>
</mask>
<g mask="url(#mask24_0_5716)">
<path fill-rule="evenodd" clip-rule="evenodd" d="M2.09111 40.9899L5.4903 39.2882L8.88367 41L8.24814 37.3834L11.0002 34.8278L7.19861 34.2922L5.5088 31L3.79943 34.2847L0 34.8061L2.74462 37.3738L2.09111 40.9899Z" fill="#B88AC4"/>
</g>
<mask id="mask25_0_5716" style="mask-type:alpha" maskUnits="userSpaceOnUse" x="16" y="31" width="11" height="10">
<path fill-rule="evenodd" clip-rule="evenodd" d="M16 31H27V41H16V31Z" fill="white"/>
</mask>
<g mask="url(#mask25_0_5716)">
<path fill-rule="evenodd" clip-rule="evenodd" d="M18.0911 40.9899L21.4903 39.2882L24.8837 41L24.2481 37.3834L27.0002 34.8278L23.1986 34.2922L21.5088 31L19.7994 34.2847L16 34.8061L18.7446 37.3738L18.0911 40.9899Z" fill="#B88AC4"/>
</g>
<mask id="mask26_0_5716" style="mask-type:alpha" maskUnits="userSpaceOnUse" x="0" y="45" width="11" height="10">
<path fill-rule="evenodd" clip-rule="evenodd" d="M0 45H11V55H0V45Z" fill="white"/>
</mask>
<g mask="url(#mask26_0_5716)">
<path fill-rule="evenodd" clip-rule="evenodd" d="M2.09111 54.9899L5.4903 53.2882L8.88367 55L8.24814 51.3834L11.0002 48.8278L7.19861 48.2922L5.5088 45L3.79943 48.2847L0 48.8061L2.74462 51.3738L2.09111 54.9899Z" fill="#B88AC4"/>
</g>
<mask id="mask27_0_5716" style="mask-type:alpha" maskUnits="userSpaceOnUse" x="16" y="45" width="11" height="10">
<path fill-rule="evenodd" clip-rule="evenodd" d="M16 45H27V55H16V45Z" fill="white"/>
</mask>
<g mask="url(#mask27_0_5716)">
<path fill-rule="evenodd" clip-rule="evenodd" d="M18.0911 54.9899L21.4903 53.2882L24.8837 55L24.2481 51.3834L27.0002 48.8278L23.1986 48.2922L21.5088 45L19.7994 48.2847L16 48.8061L18.7446 51.3738L18.0911 54.9899Z" fill="#B88AC4"/>
</g>
<mask id="mask28_0_5716" style="mask-type:alpha" maskUnits="userSpaceOnUse" x="32" y="31" width="11" height="10">
<path fill-rule="evenodd" clip-rule="evenodd" d="M32 31H43V41H32V31Z" fill="white"/>
</mask>
<g mask="url(#mask28_0_5716)">
<path fill-rule="evenodd" clip-rule="evenodd" d="M34.0911 40.9899L37.4903 39.2882L40.8837 41L40.2481 37.3834L43.0002 34.8278L39.1986 34.2922L37.5088 31L35.7994 34.2847L32 34.8061L34.7446 37.3738L34.0911 40.9899Z" fill="#B88AC4"/>
</g>
<mask id="mask29_0_5716" style="mask-type:alpha" maskUnits="userSpaceOnUse" x="46" y="31" width="11" height="10">
<path fill-rule="evenodd" clip-rule="evenodd" d="M46 31H57V41H46V31Z" fill="white"/>
</mask>
<g mask="url(#mask29_0_5716)">
<path fill-rule="evenodd" clip-rule="evenodd" d="M48.0911 40.9899L51.4903 39.2882L54.8837 41L54.2481 37.3834L57.0002 34.8278L53.1986 34.2922L51.5088 31L49.7994 34.2847L46 34.8061L48.7446 37.3738L48.0911 40.9899Z" fill="#B88AC4"/>
</g>
<mask id="mask30_0_5716" style="mask-type:alpha" maskUnits="userSpaceOnUse" x="32" y="45" width="11" height="10">
<path fill-rule="evenodd" clip-rule="evenodd" d="M32 45H43V55H32V45Z" fill="white"/>
</mask>
<g mask="url(#mask30_0_5716)">
<path fill-rule="evenodd" clip-rule="evenodd" d="M34.0911 54.9899L37.4903 53.2882L40.8837 55L40.2481 51.3834L43.0002 48.8278L39.1986 48.2922L37.5088 45L35.7994 48.2847L32 48.8061L34.7446 51.3738L34.0911 54.9899Z" fill="#B88AC4"/>
</g>
<mask id="mask31_0_5716" style="mask-type:alpha" maskUnits="userSpaceOnUse" x="46" y="45" width="11" height="10">
<path fill-rule="evenodd" clip-rule="evenodd" d="M46 45H57V55H46V45Z" fill="white"/>
</mask>
<g mask="url(#mask31_0_5716)">
<path fill-rule="evenodd" clip-rule="evenodd" d="M48.0911 54.9899L51.4903 53.2882L54.8837 55L54.2481 51.3834L57.0002 48.8278L53.1986 48.2922L51.5088 45L49.7994 48.2847L46 48.8061L48.7446 51.3738L48.0911 54.9899Z" fill="#B88AC4"/>
</g>
<mask id="mask32_0_5716" style="mask-type:alpha" maskUnits="userSpaceOnUse" x="61" y="60" width="11" height="10">
<path fill-rule="evenodd" clip-rule="evenodd" d="M61 60H72V70H61V60Z" fill="white"/>
</mask>
<g mask="url(#mask32_0_5716)">
<path fill-rule="evenodd" clip-rule="evenodd" d="M63.0911 69.9899L66.4903 68.2882L69.8837 70L69.2481 66.3834L72.0002 63.8278L68.1986 63.2922L66.5088 60L64.7994 63.2847L61 63.8061L63.7446 66.3738L63.0911 69.9899Z" fill="#B88AC4"/>
</g>
<mask id="mask33_0_5716" style="mask-type:alpha" maskUnits="userSpaceOnUse" x="77" y="60" width="11" height="10">
<path fill-rule="evenodd" clip-rule="evenodd" d="M77 60H88V70H77V60Z" fill="white"/>
</mask>
<g mask="url(#mask33_0_5716)">
<path fill-rule="evenodd" clip-rule="evenodd" d="M79.0911 69.9899L82.4903 68.2882L85.8837 70L85.2481 66.3834L88.0002 63.8278L84.1986 63.2922L82.5088 60L80.7994 63.2847L77 63.8061L79.7446 66.3738L79.0911 69.9899Z" fill="#B88AC4"/>
</g>
<mask id="mask34_0_5716" style="mask-type:alpha" maskUnits="userSpaceOnUse" x="61" y="75" width="11" height="10">
<path fill-rule="evenodd" clip-rule="evenodd" d="M61 75H72V85H61V75Z" fill="white"/>
</mask>
<g mask="url(#mask34_0_5716)">
<path fill-rule="evenodd" clip-rule="evenodd" d="M63.0911 84.9899L66.4903 83.2882L69.8837 85L69.2481 81.3834L72.0002 78.8278L68.1986 78.2922L66.5088 75L64.7994 78.2847L61 78.8061L63.7446 81.3738L63.0911 84.9899Z" fill="#B88AC4"/>
</g>
<mask id="mask35_0_5716" style="mask-type:alpha" maskUnits="userSpaceOnUse" x="77" y="75" width="11" height="10">
<path fill-rule="evenodd" clip-rule="evenodd" d="M77 75H88V85H77V75Z" fill="white"/>
</mask>
<g mask="url(#mask35_0_5716)">
<path fill-rule="evenodd" clip-rule="evenodd" d="M79.0911 84.9899L82.4903 83.2882L85.8837 85L85.2481 81.3834L88.0002 78.8278L84.1986 78.2922L82.5088 75L80.7994 78.2847L77 78.8061L79.7446 81.3738L79.0911 84.9899Z" fill="#B88AC4"/>
</g>
<mask id="mask36_0_5716" style="mask-type:alpha" maskUnits="userSpaceOnUse" x="93" y="60" width="11" height="10">
<path fill-rule="evenodd" clip-rule="evenodd" d="M93 60H104V70H93V60Z" fill="white"/>
</mask>
<g mask="url(#mask36_0_5716)">
<path fill-rule="evenodd" clip-rule="evenodd" d="M95.0911 69.9899L98.4903 68.2882L101.884 70L101.248 66.3834L104 63.8278L100.199 63.2922L98.5088 60L96.7994 63.2847L93 63.8061L95.7446 66.3738L95.0911 69.9899Z" fill="#B88AC4"/>
</g>
<mask id="mask37_0_5716" style="mask-type:alpha" maskUnits="userSpaceOnUse" x="109" y="60" width="11" height="10">
<path fill-rule="evenodd" clip-rule="evenodd" d="M109 60H120V70H109V60Z" fill="white"/>
</mask>
<g mask="url(#mask37_0_5716)">
<path fill-rule="evenodd" clip-rule="evenodd" d="M111.091 69.9899L114.49 68.2882L117.884 70L117.248 66.3834L120 63.8278L116.199 63.2922L114.509 60L112.799 63.2847L109 63.8061L111.745 66.3738L111.091 69.9899Z" fill="#B88AC4"/>
</g>
<mask id="mask38_0_5716" style="mask-type:alpha" maskUnits="userSpaceOnUse" x="93" y="75" width="11" height="10">
<path fill-rule="evenodd" clip-rule="evenodd" d="M93 75H104V85H93V75Z" fill="white"/>
</mask>
<g mask="url(#mask38_0_5716)">
<path fill-rule="evenodd" clip-rule="evenodd" d="M95.0911 84.9899L98.4903 83.2882L101.884 85L101.248 81.3834L104 78.8278L100.199 78.2922L98.5088 75L96.7994 78.2847L93 78.8061L95.7446 81.3738L95.0911 84.9899Z" fill="#B88AC4"/>
</g>
<mask id="mask39_0_5716" style="mask-type:alpha" maskUnits="userSpaceOnUse" x="109" y="75" width="11" height="10">
<path fill-rule="evenodd" clip-rule="evenodd" d="M109 75H120V85H109V75Z" fill="white"/>
</mask>
<g mask="url(#mask39_0_5716)">
<path fill-rule="evenodd" clip-rule="evenodd" d="M111.091 84.9899L114.49 83.2882L117.884 85L117.248 81.3834L120 78.8278L116.199 78.2922L114.509 75L112.799 78.2847L109 78.8061L111.745 81.3738L111.091 84.9899Z" fill="#B88AC4"/>
</g>
<mask id="mask40_0_5716" style="mask-type:alpha" maskUnits="userSpaceOnUse" x="0" y="60" width="11" height="10">
<path fill-rule="evenodd" clip-rule="evenodd" d="M0 60H11V70H0V60Z" fill="white"/>
</mask>
<g mask="url(#mask40_0_5716)">
<path fill-rule="evenodd" clip-rule="evenodd" d="M2.09111 69.9899L5.4903 68.2882L8.88367 70L8.24814 66.3834L11.0002 63.8278L7.19861 63.2922L5.5088 60L3.79943 63.2847L0 63.8061L2.74462 66.3738L2.09111 69.9899Z" fill="#B88AC4"/>
</g>
<mask id="mask41_0_5716" style="mask-type:alpha" maskUnits="userSpaceOnUse" x="16" y="60" width="11" height="10">
<path fill-rule="evenodd" clip-rule="evenodd" d="M16 60H27V70H16V60Z" fill="white"/>
</mask>
<g mask="url(#mask41_0_5716)">
<path fill-rule="evenodd" clip-rule="evenodd" d="M18.0911 69.9899L21.4903 68.2882L24.8837 70L24.2481 66.3834L27.0002 63.8278L23.1986 63.2922L21.5088 60L19.7994 63.2847L16 63.8061L18.7446 66.3738L18.0911 69.9899Z" fill="#B88AC4"/>
</g>
<mask id="mask42_0_5716" style="mask-type:alpha" maskUnits="userSpaceOnUse" x="0" y="75" width="11" height="10">
<path fill-rule="evenodd" clip-rule="evenodd" d="M0 75H11V85H0V75Z" fill="white"/>
</mask>
<g mask="url(#mask42_0_5716)">
<path fill-rule="evenodd" clip-rule="evenodd" d="M2.09111 84.9899L5.4903 83.2882L8.88367 85L8.24814 81.3834L11.0002 78.8278L7.19861 78.2922L5.5088 75L3.79943 78.2847L0 78.8061L2.74462 81.3738L2.09111 84.9899Z" fill="#B88AC4"/>
</g>
<mask id="mask43_0_5716" style="mask-type:alpha" maskUnits="userSpaceOnUse" x="16" y="75" width="11" height="10">
<path fill-rule="evenodd" clip-rule="evenodd" d="M16 75H27V85H16V75Z" fill="white"/>
</mask>
<g mask="url(#mask43_0_5716)">
<path fill-rule="evenodd" clip-rule="evenodd" d="M18.0911 84.9899L21.4903 83.2882L24.8837 85L24.2481 81.3834L27.0002 78.8278L23.1986 78.2922L21.5088 75L19.7994 78.2847L16 78.8061L18.7446 81.3738L18.0911 84.9899Z" fill="#B88AC4"/>
</g>
<mask id="mask44_0_5716" style="mask-type:alpha" maskUnits="userSpaceOnUse" x="32" y="60" width="11" height="10">
<path fill-rule="evenodd" clip-rule="evenodd" d="M32 60H43V70H32V60Z" fill="white"/>
</mask>
<g mask="url(#mask44_0_5716)">
<path fill-rule="evenodd" clip-rule="evenodd" d="M34.0911 69.9899L37.4903 68.2882L40.8837 70L40.2481 66.3834L43.0002 63.8278L39.1986 63.2922L37.5088 60L35.7994 63.2847L32 63.8061L34.7446 66.3738L34.0911 69.9899Z" fill="#B88AC4"/>
</g>
<mask id="mask45_0_5716" style="mask-type:alpha" maskUnits="userSpaceOnUse" x="46" y="60" width="11" height="10">
<path fill-rule="evenodd" clip-rule="evenodd" d="M46 60H57V70H46V60Z" fill="white"/>
</mask>
<g mask="url(#mask45_0_5716)">
<path fill-rule="evenodd" clip-rule="evenodd" d="M48.0911 69.9899L51.4903 68.2882L54.8837 70L54.2481 66.3834L57.0002 63.8278L53.1986 63.2922L51.5088 60L49.7994 63.2847L46 63.8061L48.7446 66.3738L48.0911 69.9899Z" fill="#B88AC4"/>
</g>
<mask id="mask46_0_5716" style="mask-type:alpha" maskUnits="userSpaceOnUse" x="32" y="75" width="11" height="10">
<path fill-rule="evenodd" clip-rule="evenodd" d="M32 75H43V85H32V75Z" fill="white"/>
</mask>
<g mask="url(#mask46_0_5716)">
<path fill-rule="evenodd" clip-rule="evenodd" d="M34.0911 84.9899L37.4903 83.2882L40.8837 85L40.2481 81.3834L43.0002 78.8278L39.1986 78.2922L37.5088 75L35.7994 78.2847L32 78.8061L34.7446 81.3738L34.0911 84.9899Z" fill="#B88AC4"/>
</g>
<mask id="mask47_0_5716" style="mask-type:alpha" maskUnits="userSpaceOnUse" x="46" y="75" width="11" height="10">
<path fill-rule="evenodd" clip-rule="evenodd" d="M46 75H57V85H46V75Z" fill="white"/>
</mask>
<g mask="url(#mask47_0_5716)">
<path fill-rule="evenodd" clip-rule="evenodd" d="M48.0911 84.9899L51.4903 83.2882L54.8837 85L54.2481 81.3834L57.0002 78.8278L53.1986 78.2922L51.5088 75L49.7994 78.2847L46 78.8061L48.7446 81.3738L48.0911 84.9899Z" fill="#B88AC4"/>
</g>
<mask id="mask48_0_5716" style="mask-type:alpha" maskUnits="userSpaceOnUse" x="61" y="91" width="11" height="10">
<path fill-rule="evenodd" clip-rule="evenodd" d="M61 91H72V101H61V91Z" fill="white"/>
</mask>
<g mask="url(#mask48_0_5716)">
<path fill-rule="evenodd" clip-rule="evenodd" d="M63.0911 100.99L66.4903 99.2882L69.8837 101L69.2481 97.3834L72.0002 94.8278L68.1986 94.2922L66.5088 91L64.7994 94.2847L61 94.8061L63.7446 97.3738L63.0911 100.99Z" fill="#B88AC4"/>
</g>
<mask id="mask49_0_5716" style="mask-type:alpha" maskUnits="userSpaceOnUse" x="77" y="91" width="11" height="10">
<path fill-rule="evenodd" clip-rule="evenodd" d="M77 91H88V101H77V91Z" fill="white"/>
</mask>
<g mask="url(#mask49_0_5716)">
<path fill-rule="evenodd" clip-rule="evenodd" d="M79.0911 100.99L82.4903 99.2882L85.8837 101L85.2481 97.3834L88.0002 94.8278L84.1986 94.2922L82.5088 91L80.7994 94.2847L77 94.8061L79.7446 97.3738L79.0911 100.99Z" fill="#B88AC4"/>
</g>
<mask id="mask50_0_5716" style="mask-type:alpha" maskUnits="userSpaceOnUse" x="61" y="106" width="11" height="10">
<path fill-rule="evenodd" clip-rule="evenodd" d="M61 106H72V116H61V106Z" fill="white"/>
</mask>
<g mask="url(#mask50_0_5716)">
<path fill-rule="evenodd" clip-rule="evenodd" d="M63.0911 115.99L66.4903 114.288L69.8837 116L69.2481 112.383L72.0002 109.828L68.1986 109.292L66.5088 106L64.7994 109.285L61 109.806L63.7446 112.374L63.0911 115.99Z" fill="#B88AC4"/>
</g>
<mask id="mask51_0_5716" style="mask-type:alpha" maskUnits="userSpaceOnUse" x="77" y="106" width="11" height="10">
<path fill-rule="evenodd" clip-rule="evenodd" d="M77 106H88V116H77V106Z" fill="white"/>
</mask>
<g mask="url(#mask51_0_5716)">
<path fill-rule="evenodd" clip-rule="evenodd" d="M79.0911 115.99L82.4903 114.288L85.8837 116L85.2481 112.383L88.0002 109.828L84.1986 109.292L82.5088 106L80.7994 109.285L77 109.806L79.7446 112.374L79.0911 115.99Z" fill="#B88AC4"/>
</g>
<mask id="mask52_0_5716" style="mask-type:alpha" maskUnits="userSpaceOnUse" x="93" y="91" width="11" height="10">
<path fill-rule="evenodd" clip-rule="evenodd" d="M93 91H104V101H93V91Z" fill="white"/>
</mask>
<g mask="url(#mask52_0_5716)">
<path fill-rule="evenodd" clip-rule="evenodd" d="M95.0911 100.99L98.4903 99.2882L101.884 101L101.248 97.3834L104 94.8278L100.199 94.2922L98.5088 91L96.7994 94.2847L93 94.8061L95.7446 97.3738L95.0911 100.99Z" fill="#B88AC4"/>
</g>
<mask id="mask53_0_5716" style="mask-type:alpha" maskUnits="userSpaceOnUse" x="109" y="91" width="11" height="10">
<path fill-rule="evenodd" clip-rule="evenodd" d="M109 91H120V101H109V91Z" fill="white"/>
</mask>
<g mask="url(#mask53_0_5716)">
<path fill-rule="evenodd" clip-rule="evenodd" d="M111.091 100.99L114.49 99.2882L117.884 101L117.248 97.3834L120 94.8278L116.199 94.2922L114.509 91L112.799 94.2847L109 94.8061L111.745 97.3738L111.091 100.99Z" fill="#B88AC4"/>
</g>
<mask id="mask54_0_5716" style="mask-type:alpha" maskUnits="userSpaceOnUse" x="93" y="106" width="11" height="10">
<path fill-rule="evenodd" clip-rule="evenodd" d="M93 106H104V116H93V106Z" fill="white"/>
</mask>
<g mask="url(#mask54_0_5716)">
<path fill-rule="evenodd" clip-rule="evenodd" d="M95.0911 115.99L98.4903 114.288L101.884 116L101.248 112.383L104 109.828L100.199 109.292L98.5088 106L96.7994 109.285L93 109.806L95.7446 112.374L95.0911 115.99Z" fill="#B88AC4"/>
</g>
<mask id="mask55_0_5716" style="mask-type:alpha" maskUnits="userSpaceOnUse" x="109" y="106" width="11" height="10">
<path fill-rule="evenodd" clip-rule="evenodd" d="M109 106H120V116H109V106Z" fill="white"/>
</mask>
<g mask="url(#mask55_0_5716)">
<path fill-rule="evenodd" clip-rule="evenodd" d="M111.091 115.99L114.49 114.288L117.884 116L117.248 112.383L120 109.828L116.199 109.292L114.509 106L112.799 109.285L109 109.806L111.745 112.374L111.091 115.99Z" fill="#B88AC4"/>
</g>
<mask id="mask56_0_5716" style="mask-type:alpha" maskUnits="userSpaceOnUse" x="0" y="91" width="11" height="10">
<path fill-rule="evenodd" clip-rule="evenodd" d="M0 91H11V101H0V91Z" fill="white"/>
</mask>
<g mask="url(#mask56_0_5716)">
<path fill-rule="evenodd" clip-rule="evenodd" d="M2.09111 100.99L5.4903 99.2882L8.88367 101L8.24814 97.3834L11.0002 94.8278L7.19861 94.2922L5.5088 91L3.79943 94.2847L0 94.8061L2.74462 97.3738L2.09111 100.99Z" fill="#B88AC4"/>
</g>
<mask id="mask57_0_5716" style="mask-type:alpha" maskUnits="userSpaceOnUse" x="16" y="91" width="11" height="10">
<path fill-rule="evenodd" clip-rule="evenodd" d="M16 91H27V101H16V91Z" fill="white"/>
</mask>
<g mask="url(#mask57_0_5716)">
<path fill-rule="evenodd" clip-rule="evenodd" d="M18.0911 100.99L21.4903 99.2882L24.8837 101L24.2481 97.3834L27.0002 94.8278L23.1986 94.2922L21.5088 91L19.7994 94.2847L16 94.8061L18.7446 97.3738L18.0911 100.99Z" fill="#B88AC4"/>
</g>
<mask id="mask58_0_5716" style="mask-type:alpha" maskUnits="userSpaceOnUse" x="0" y="106" width="11" height="10">
<path fill-rule="evenodd" clip-rule="evenodd" d="M0 106H11V116H0V106Z" fill="white"/>
</mask>
<g mask="url(#mask58_0_5716)">
<path fill-rule="evenodd" clip-rule="evenodd" d="M2.09111 115.99L5.4903 114.288L8.88367 116L8.24814 112.383L11.0002 109.828L7.19861 109.292L5.5088 106L3.79943 109.285L0 109.806L2.74462 112.374L2.09111 115.99Z" fill="#B88AC4"/>
</g>
<mask id="mask59_0_5716" style="mask-type:alpha" maskUnits="userSpaceOnUse" x="16" y="106" width="11" height="10">
<path fill-rule="evenodd" clip-rule="evenodd" d="M16 106H27V116H16V106Z" fill="white"/>
</mask>
<g mask="url(#mask59_0_5716)">
<path fill-rule="evenodd" clip-rule="evenodd" d="M18.0911 115.99L21.4903 114.288L24.8837 116L24.2481 112.383L27.0002 109.828L23.1986 109.292L21.5088 106L19.7994 109.285L16 109.806L18.7446 112.374L18.0911 115.99Z" fill="#B88AC4"/>
</g>
<mask id="mask60_0_5716" style="mask-type:alpha" maskUnits="userSpaceOnUse" x="32" y="91" width="11" height="10">
<path fill-rule="evenodd" clip-rule="evenodd" d="M32 91H43V101H32V91Z" fill="white"/>
</mask>
<g mask="url(#mask60_0_5716)">
<path fill-rule="evenodd" clip-rule="evenodd" d="M34.0911 100.99L37.4903 99.2882L40.8837 101L40.2481 97.3834L43.0002 94.8278L39.1986 94.2922L37.5088 91L35.7994 94.2847L32 94.8061L34.7446 97.3738L34.0911 100.99Z" fill="#B88AC4"/>
</g>
<mask id="mask61_0_5716" style="mask-type:alpha" maskUnits="userSpaceOnUse" x="46" y="91" width="11" height="10">
<path fill-rule="evenodd" clip-rule="evenodd" d="M46 91H57V101H46V91Z" fill="white"/>
</mask>
<g mask="url(#mask61_0_5716)">
<path fill-rule="evenodd" clip-rule="evenodd" d="M48.0911 100.99L51.4903 99.2882L54.8837 101L54.2481 97.3834L57.0002 94.8278L53.1986 94.2922L51.5088 91L49.7994 94.2847L46 94.8061L48.7446 97.3738L48.0911 100.99Z" fill="#B88AC4"/>
</g>
<mask id="mask62_0_5716" style="mask-type:alpha" maskUnits="userSpaceOnUse" x="32" y="106" width="11" height="10">
<path fill-rule="evenodd" clip-rule="evenodd" d="M32 106H43V116H32V106Z" fill="white"/>
</mask>
<g mask="url(#mask62_0_5716)">
<path fill-rule="evenodd" clip-rule="evenodd" d="M34.0911 115.99L37.4903 114.288L40.8837 116L40.2481 112.383L43.0002 109.828L39.1986 109.292L37.5088 106L35.7994 109.285L32 109.806L34.7446 112.374L34.0911 115.99Z" fill="#B88AC4"/>
</g>
<mask id="mask63_0_5716" style="mask-type:alpha" maskUnits="userSpaceOnUse" x="46" y="106" width="11" height="10">
<path fill-rule="evenodd" clip-rule="evenodd" d="M46 106H57V116H46V106Z" fill="white"/>
</mask>
<g mask="url(#mask63_0_5716)">
<path fill-rule="evenodd" clip-rule="evenodd" d="M48.0911 115.99L51.4903 114.288L54.8837 116L54.2481 112.383L57.0002 109.828L53.1986 109.292L51.5088 106L49.7994 109.285L46 109.806L48.7446 112.374L48.0911 115.99Z" fill="#B88AC4"/>
</g>
</svg>
