<svg width="148" height="40" viewBox="0 0 148 40" fill="none" xmlns="http://www.w3.org/2000/svg">
<path fill-rule="evenodd" clip-rule="evenodd" d="M9.21739 13.8108C8.61902 13.8804 8.07707 13.4518 8.00744 12.8534C7.9378 12.2553 8.36497 11.7145 8.96472 11.6438C9.56281 11.5742 10.1045 12.002 10.1744 12.6009C10.244 13.1987 9.81603 13.7401 9.21739 13.8108" fill="#4BB8DB"/>
<path fill-rule="evenodd" clip-rule="evenodd" d="M2.02923 12.3511C1.03206 12.468 0.13 11.7543 0.0125119 10.7566C-0.104318 9.76023 0.610155 8.856 1.60667 8.7398C2.60416 8.62295 3.50754 9.33692 3.62404 10.3346C3.73988 11.332 3.02607 12.2356 2.02923 12.3511" fill="#B18DC0"/>
<path fill-rule="evenodd" clip-rule="evenodd" d="M4.60042 18.1893C5.19989 18.1193 5.74089 18.5469 5.81061 19.1468C5.88094 19.7437 5.45258 20.2863 4.85403 20.356C4.25548 20.4267 3.71356 19.9969 3.64384 19.3995C3.57382 18.8002 4.00279 18.259 4.60042 18.1893" fill="#2A307E"/>
<path fill-rule="evenodd" clip-rule="evenodd" d="M12.1773 3.80157L12.482 5.07047L11.6364 6.04734L12.9051 6.14469L13.5483 7.27273L14.0297 6.06109L15.2727 5.78223L14.3014 4.93763L14.4265 3.63637L13.3443 4.32579L12.1773 3.80157Z" fill="#EFCEDC"/>
<path fill-rule="evenodd" clip-rule="evenodd" d="M14.0548 24.2002L16 23.4752L14.2309 22.401L14.1305 20.3636L12.5417 21.6817L10.5344 21.1473L11.3213 23.0355L10.1818 24.7426L12.2564 24.5916L13.5606 26.1818L14.0548 24.2002Z" fill="#EFCEDC"/>
<path fill-rule="evenodd" clip-rule="evenodd" d="M127.574 18.9109C128.175 18.8768 128.691 19.3364 128.725 19.9378C128.76 20.5389 128.302 21.0536 127.699 21.0891C127.097 21.1235 126.582 20.6646 126.547 20.0627C126.513 19.4616 126.972 18.9466 127.574 18.9109" fill="#4BB8DB"/>
<path fill-rule="evenodd" clip-rule="evenodd" d="M145.713 12.3668C146.716 12.3082 147.575 13.0739 147.633 14.077C147.691 15.0784 146.925 15.9396 145.923 15.9969C144.921 16.0549 144.06 15.2891 144.003 14.286C143.946 13.2833 144.711 12.4231 145.713 12.3668" fill="#B18DC0"/>
<path fill-rule="evenodd" clip-rule="evenodd" d="M134.119 11.6382C134.722 11.6032 135.237 12.0623 135.271 12.6653C135.306 13.2656 134.847 13.7819 134.245 13.8163C133.643 13.8516 133.127 13.391 133.093 12.7898C133.058 12.188 133.518 11.6723 134.119 11.6382" fill="#2A307E"/>
<path fill-rule="evenodd" clip-rule="evenodd" d="M137.394 19.6661L137.625 20.9726L136.727 21.9118L137.985 22.0885L138.561 23.2727L139.109 22.0727L140.364 21.8664L139.444 20.9493L139.643 19.6364L138.526 20.2694L137.394 19.6661Z" fill="#B18DC0"/>
<path fill-rule="evenodd" clip-rule="evenodd" d="M137.963 4.14605L136 4.76215L137.683 5.94525L137.661 8.00001L139.308 6.76715L141.257 7.42114L140.592 5.4765L141.818 3.82531L139.762 3.8571L138.568 2.18182L137.963 4.14605Z" fill="#EFCEDC"/>
<path fill-rule="evenodd" clip-rule="evenodd" d="M40.4196 11.6022C40.2354 11.2454 39.9678 10.9369 39.615 10.734C39.1763 10.4822 38.6541 10.4144 38.1474 10.3631C35.5617 10.102 32.9426 10.1842 30.3498 10.294C29.6108 10.3207 28.8739 10.3457 28.1231 10.4063C27.3899 10.4633 26.6781 10.6251 25.9567 10.7403C25.775 10.7292 25.5921 10.7205 25.3999 10.7268C25.1799 10.7277 24.9114 10.7748 24.7464 10.7934L24.4097 10.8345C24.6207 10.5404 24.8407 10.2514 25.0869 9.98612C25.636 9.36908 26.2774 8.83727 26.984 8.4024C27.6878 7.96243 28.4654 7.6344 29.2771 7.40181C29.6812 7.28087 30.0986 7.19623 30.5182 7.1224L31.134 7.03627C31.2585 7.31658 31.3234 7.53116 31.535 7.94442C31.7812 8.42521 32.2849 8.74304 32.8333 8.77395C33.2961 8.80036 33.7521 8.6569 34.1735 8.46933C34.7782 8.20042 35.338 7.83638 35.825 7.39611C36.0693 7.17522 36.3042 6.92012 36.3808 6.6047C36.4577 6.28688 36.3638 5.95585 36.2705 5.64193C36.1101 5.10472 35.9504 4.56721 35.7904 4.0297C35.5487 3.21788 35.2963 2.45409 34.3497 2.26531C33.5516 2.09695 32.832 2.22089 32.1573 2.30913C30.7879 2.50541 29.4353 2.82473 28.1345 3.28451C25.5263 4.19146 23.1615 5.72866 21.3173 7.71603C20.3993 8.71752 19.6115 9.81025 18.9358 10.9759C18.6123 11.5656 18.2814 12.1689 18.1893 12.887C18.1544 13.2658 18.2462 13.6079 18.3682 13.9423C18.4986 14.2757 18.7173 14.5929 19.0173 14.8195C19.6241 15.285 20.3984 15.3672 21.0936 15.3471L23.1377 15.2148L27.2015 14.9639C28.5532 14.8648 29.904 14.8531 31.248 14.8633C31.9181 14.8795 32.5883 14.8936 33.2083 15.0005C33.5253 15.0521 33.8343 15.1223 34.1142 15.2118C34.388 15.2982 34.6416 15.4416 34.7093 15.5476C34.7297 15.5719 34.7331 15.5908 34.7399 15.6076C34.7433 15.616 34.7399 15.6262 34.7448 15.6349L34.7488 15.7205C34.7501 15.8396 34.7356 15.972 34.7084 16.1085C34.6552 16.3813 34.5554 16.6706 34.4393 16.9494C34.2097 17.5073 33.8847 18.0172 33.4691 18.4518C33.0529 18.8912 32.5583 19.2375 31.9969 19.5421C31.4324 19.8504 30.8426 20.1112 30.2324 20.3137C29.0176 20.7108 27.7038 20.9146 26.421 20.8458C25.1472 20.7876 23.8977 20.3978 22.8973 19.6157L21.8694 18.5509L21.8301 18.5091C21.3506 18.0815 20.6379 17.9173 20.0354 18.0229C19.7329 18.0662 19.3964 18.1646 19.1388 18.4113C18.878 18.6592 18.785 19.0157 18.7924 19.3141C18.8669 20.4905 19.4283 21.5196 20.1834 22.3473C20.5609 22.7618 20.9839 23.1327 21.4374 23.4581C21.8851 23.7864 22.3613 24.0934 22.8778 24.3215C23.9212 24.8047 25.1058 24.7789 26.2069 24.6384C29.1402 24.3092 31.9499 23.2027 34.4071 21.5976C35.6294 20.7864 36.7942 19.8777 37.8122 18.8054C38.8306 17.7393 39.7037 16.502 40.2577 15.1052C40.5648 14.3306 40.7854 13.4795 40.7137 12.6419C40.6834 12.2838 40.5855 11.9234 40.4196 11.6022" fill="#B18DC0"/>
<mask id="mask0_0_892" style="mask-type:alpha" maskUnits="userSpaceOnUse" x="40" y="0" width="28" height="24">
<path fill-rule="evenodd" clip-rule="evenodd" d="M40.7273 0H67.6364V24H40.7273V0Z" fill="white"/>
</mask>
<g mask="url(#mask0_0_892)">
<path fill-rule="evenodd" clip-rule="evenodd" d="M66.8447 1.18536C66.4374 0.708519 65.9228 0.224644 65.159 0.0479671C64.7976 -0.03059 64.3588 -0.0275333 63.9568 0.169624C63.7653 0.261019 63.5845 0.401015 63.4603 0.526951C63.3359 0.647996 63.2203 0.777906 63.1184 0.915763C62.7193 1.45282 62.5072 2.06844 62.3868 2.66511C61.4327 5.59892 60.4996 8.54069 59.5763 11.4852C59.4039 11.0829 59.2309 10.6804 59.0489 10.2827C58.6268 9.35407 58.1868 8.41811 57.7953 7.50233C57.3996 6.57156 56.9748 5.68451 56.6016 4.71707C56.5054 4.471 56.4113 4.23105 56.2808 3.9642C56.12 3.63347 55.8909 3.38129 55.5811 3.17374C55.271 2.97108 54.8941 2.87938 54.5591 2.88183C54.2286 2.88702 53.9082 2.94785 53.6057 3.0744C52.9957 3.32597 52.5557 3.79425 52.2405 4.26682C51.9203 4.74519 51.6991 5.25138 51.5198 5.75757L50.5418 8.66662C50.2129 9.63193 49.8845 10.5969 49.6366 11.5968L49.1028 13.5604C48.5812 12.3258 48.0608 11.0903 47.5729 9.85079C46.9414 8.29615 46.3254 6.69933 45.7155 5.12269C45.392 4.34201 45.0009 3.565 44.3992 2.90109C44.2414 2.74061 44.062 2.58747 43.8323 2.48721C43.7152 2.44228 43.5883 2.40468 43.4536 2.40926C43.321 2.40987 43.2209 2.42944 43.1056 2.45236C42.6565 2.54223 42.2514 2.7672 41.9082 3.04322C41.5662 3.32474 41.2643 3.6353 41.0151 4.01739C40.8938 4.20905 40.7903 4.42424 40.7457 4.66969C40.6986 4.92187 40.7493 5.17466 40.8139 5.38832C40.9499 5.82543 41.1714 6.20751 41.3996 6.56881L42.0672 7.62154C43.2002 9.98253 44.1355 12.4386 45.0185 14.9087C45.4821 16.205 45.893 17.5191 46.3457 18.8188C46.8009 20.1256 47.0925 21.5216 47.7231 22.7586C47.9285 23.1618 48.1883 23.5591 48.5773 23.7863C49.003 24.0345 49.5316 24.0433 50.0105 23.9305C50.4817 23.8199 50.9302 23.612 51.2285 23.2147C51.463 22.9026 51.6032 22.5293 51.7149 22.1543C52.2238 20.4404 52.4213 18.6229 52.8625 16.8849C53.345 14.9833 53.88 13.0955 54.4596 11.2217C54.8522 11.9351 55.2449 12.6486 55.6117 13.3718C56.1227 14.2781 56.489 15.2523 56.8889 16.2115L58.0666 19.1065C58.2705 19.5879 58.4863 20.0669 58.7627 20.5159C58.9011 20.7396 59.0519 20.9585 59.2403 21.1496C59.4248 21.3357 59.6664 21.5145 59.961 21.509C60.5215 21.4977 61.1451 21.3207 61.5037 20.8283C61.6846 20.5923 61.7875 20.309 61.8497 20.0259L62.0257 19.1963C62.2724 18.0935 62.5546 16.9992 62.8544 15.9107C63.491 13.7456 64.1674 11.5827 65.0012 9.4956L66.2241 6.36279L66.3768 5.97215L66.5722 5.59831L66.9645 4.85156C67.0917 4.61253 67.2276 4.33559 67.3417 4.06691C67.4006 3.9315 67.4579 3.79425 67.5122 3.64539C67.5587 3.49194 67.6382 3.35439 67.6364 3.04322C67.6039 2.26957 67.2337 1.68177 66.8447 1.18536" fill="#4BB8DB"/>
</g>
<path fill-rule="evenodd" clip-rule="evenodd" d="M89.0784 8.78293C88.7841 8.50112 88.4211 8.31998 88.0575 8.16627C87.3175 7.87452 86.5457 7.69699 85.7491 7.61471C84.9558 7.55956 84.1778 7.53755 83.3895 7.53213C80.4771 7.53062 77.5563 7.82599 74.6891 8.40045C74.7377 7.67891 74.7854 6.95736 74.8263 6.23703C76.1176 5.80121 77.4262 5.391 78.7135 5.17309C80.1283 4.97417 81.6634 4.93559 83.1569 4.87441C83.5264 4.85542 83.9043 4.85994 84.3419 4.80901C84.7653 4.75174 85.2135 4.68453 85.6998 4.39278C85.9358 4.2466 86.1883 4.01121 86.3205 3.69987C86.7123 2.78302 86.1282 1.79353 85.4068 1.21003C84.6185 0.572271 83.6057 0.242242 82.5895 0.111737C80.4093 -0.16796 78.0237 0.112038 75.8893 0.568654C74.9982 0.759137 74.1189 1.00056 73.2572 1.29171C72.4826 1.55332 71.5453 1.77545 70.8425 2.17631C70.4442 2.3903 70.0419 2.8002 69.891 3.2761C69.7442 3.74598 69.7482 4.14382 69.7581 4.54076L69.8114 5.64448C69.8684 7.0306 69.9124 8.40256 70.1404 9.81762C69.8898 9.94782 69.6479 10.119 69.4543 10.358C69.1817 10.6838 69.0702 11.1242 69.0941 11.506C69.1062 11.8843 69.2316 12.2912 69.4859 12.6052C69.6937 12.8681 69.9629 13.0546 70.2416 13.1942C70.3045 14.7491 70.3386 16.2971 70.4306 17.8658C70.508 18.673 70.547 19.5015 70.8806 20.3071C71.0494 20.7014 71.3093 21.0826 71.6794 21.3485C72.0421 21.617 72.5064 21.7629 72.9295 21.7755C76.3003 21.9416 79.6256 21.6164 82.9088 20.9078C83.7271 20.7216 84.538 20.4949 85.3365 20.2233L85.9324 20.0094C86.122 19.934 86.3317 19.8641 86.5494 19.7468C86.971 19.5229 87.3216 19.217 87.6208 18.8749C87.9221 18.5274 88.1867 18.0684 88.2254 17.5364C88.2523 17.2718 88.1879 16.908 87.9636 16.6461C87.7456 16.3814 87.4631 16.2512 87.216 16.1687C86.7098 16.0143 86.2632 16.0047 85.8042 16.0186C85.5799 16.027 85.3244 16.0577 85.1178 16.0981L84.507 16.206C82.8781 16.4845 81.2558 16.8133 79.6315 17.1027C78.147 17.3206 76.6398 17.5406 75.1769 17.6244C74.8883 15.9845 74.6668 14.328 74.5516 12.6592C76.5221 12.044 78.553 11.5865 80.6031 11.23C82.7446 10.877 84.9097 10.6594 87.0794 10.5265C87.4715 10.5051 87.863 10.4695 88.252 10.3981C88.6308 10.3137 89.0514 10.2417 89.3447 9.90804C89.604 9.50206 89.359 9.05177 89.0784 8.78293" fill="#EFCEDC"/>
<path fill-rule="evenodd" clip-rule="evenodd" d="M110.97 10.0993C110.966 10.0951 110.963 10.0911 110.959 10.0865C110.684 9.76262 110.29 9.56133 109.896 9.39694C107.857 8.54846 105.605 8.4835 103.425 8.48471C102.317 8.48502 101.214 8.49295 100.106 8.56737C99.7879 8.58872 96.6767 8.75097 96.6536 8.9364C96.7357 8.27092 96.8137 7.60482 96.8912 6.93903C96.8977 6.882 96.9066 6.821 96.9465 6.77952C96.9779 6.74719 97.0236 6.73255 97.0668 6.71944C99.4005 6.01613 101.661 5.78648 104.092 5.81942C105.097 5.83161 106.237 6.01888 107.212 5.74134C107.905 5.54431 108.552 5.01668 108.663 4.31277C108.731 3.88212 108.593 3.44111 108.376 3.0614C107.864 2.1626 106.93 1.55536 105.938 1.23299C103.56 0.459841 100.639 0.703527 98.2133 1.10337C97.302 1.25373 96.3996 1.45746 95.5126 1.71396C94.7646 1.93019 93.8727 2.08696 93.1826 2.43617C92.7734 2.63045 92.3506 3.02053 92.1716 3.49357C91.9975 3.96112 91.979 4.36309 91.9664 4.76537L91.9565 5.88377C91.9346 7.28763 91.9 8.67716 92.0469 10.1195C91.7901 10.2375 91.5396 10.397 91.3331 10.6279C91.0436 10.9426 90.9081 11.3812 90.9097 11.7685C90.9001 12.1516 91.0019 12.5694 91.2371 12.901C91.4294 13.1776 91.6865 13.381 91.9556 13.5369C91.9299 15.1118 91.8759 16.6782 91.8784 18.2691C91.9096 19.0898 91.9016 19.9291 92.1889 20.7614C92.3345 21.1689 92.5722 21.5681 92.9262 21.857C93.2724 22.147 93.7264 22.3193 94.147 22.3547C97.4921 22.7061 100.82 22.5587 104.128 22.0223C104.953 21.8789 105.773 21.6944 106.583 21.4635L107.188 21.2796C107.381 21.214 107.594 21.1546 107.818 21.0475C108.25 20.8444 108.616 20.5547 108.933 20.2253C109.253 19.8901 109.542 19.4399 109.61 18.9044C109.651 18.6372 109.607 18.266 109.397 17.9897C109.194 17.7119 108.921 17.5652 108.68 17.4688C108.185 17.2861 107.741 17.2519 107.284 17.2413C107.06 17.2376 106.804 17.255 106.596 17.2843L105.983 17.3599C104.345 17.5523 102.712 17.7951 101.079 17.9992C99.5888 18.1382 98.0763 18.2779 96.6153 18.2828C96.4212 16.6099 96.2953 14.9243 96.2752 13.2322C98.2716 12.7183 100.319 12.3666 102.381 12.1184C104.532 11.8789 106.7 11.7777 108.867 11.7618C109.258 11.7618 109.651 11.7472 110.042 11.6966C110.957 11.5785 111.717 10.9945 110.97 10.0993" fill="#4BB8DB"/>
<path fill-rule="evenodd" clip-rule="evenodd" d="M117.106 24.0188C117.106 24.0182 117.106 24.018 117.106 24.0174C117.105 24.0144 117.104 24.0116 117.103 24.0084L117.106 24.0188Z" fill="#B18DC0"/>
<path fill-rule="evenodd" clip-rule="evenodd" d="M130.439 6.35599C129.899 5.73151 129.037 5.31298 128.324 4.99231C127.045 4.41842 125.645 4.13268 124.256 3.946C122.109 3.65785 119.934 3.57053 117.769 3.68525C116.141 3.77197 113.849 3.91288 112.66 5.14888C112.217 5.60655 112.008 6.23314 112 6.80131C111.99 7.39507 112.178 7.93283 112.418 8.3911L112.43 8.41429L112.451 8.44681C112.83 9.03937 113.537 9.4609 114.201 9.5696C114.284 9.58646 114.367 9.59851 114.449 9.60874L114.572 9.62199C114.63 9.62621 114.694 9.62892 114.739 9.62771C114.933 9.6244 115.079 9.60483 115.229 9.58526C115.524 9.54341 115.8 9.49101 116.075 9.43591C116.627 9.3236 117.155 9.20166 117.696 9.0749C117.956 9.01257 118.216 8.94693 118.481 8.87286L118.294 11.9299L118.101 15.8975L117.89 19.8611L117.76 21.8408L117.713 22.8327L117.691 23.3298L117.682 23.5812L117.681 23.7101C117.687 23.7685 117.669 23.7649 117.702 23.8973C117.749 24.0783 117.872 24.2331 118.009 24.33C118.154 24.4336 118.308 24.4986 118.461 24.5486C118.77 24.6426 119.065 24.6901 119.382 24.7181C120.013 24.7621 120.627 24.6426 121.215 24.4685C121.511 24.3701 121.813 24.2827 122.111 24.0196C122.184 23.9497 122.256 23.8618 122.304 23.7453C122.355 23.608 122.353 23.5291 122.366 23.4565C122.384 23.3012 122.392 23.1497 122.396 22.9995C122.405 22.7038 122.388 22.3961 122.376 22.1157L122.344 21.3106V21.276C122.339 20.1703 122.393 19.0662 122.461 17.9639C122.531 16.8619 122.614 15.7599 122.724 14.6597L122.887 13.0081C122.977 12.4619 123.04 11.9121 123.118 11.3638C123.255 10.3528 123.362 9.33505 123.481 8.31643C123.481 8.31643 127.146 8.43205 127.146 8.43205C128.14 8.46337 129.169 8.59886 130.138 8.31222C130.327 8.25651 130.516 8.18124 130.657 8.04785C130.945 7.77717 130.968 7.3207 130.819 6.95999C130.728 6.73898 130.597 6.53875 130.439 6.35599" fill="#B18DC0"/>
<path fill-rule="evenodd" clip-rule="evenodd" d="M65.4435 24.6735C66.5187 24.2222 66.3648 22.146 65.3363 21.4249C64.7987 21.067 64.0925 20.9321 63.625 21.3478C63.2873 21.7177 63.2552 22.0558 63.2787 22.7344C63.3043 23.4649 64.4484 25.037 65.4435 24.6735" fill="#2A307E"/>
<mask id="mask1_0_892" style="mask-type:alpha" maskUnits="userSpaceOnUse" x="43" y="18" width="70" height="22">
<path fill-rule="evenodd" clip-rule="evenodd" d="M43.6364 18.1818H112.727V40H43.6364V18.1818Z" fill="white"/>
</mask>
<g mask="url(#mask1_0_892)">
<path fill-rule="evenodd" clip-rule="evenodd" d="M100.504 28.8365C100.499 28.3271 101.513 27.4553 102.534 27.4758C103.664 27.4939 103.777 28.0588 103.806 28.2354C103.946 28.9316 101.8 29.3186 100.536 29.5832C100.479 29.2851 100.507 29.2284 100.504 28.8365M88.8803 24.1896C90.1832 22.8492 92.1222 20.95 93.9293 21.1395C94.2344 21.1683 94.4299 21.3526 94.4617 21.6446C94.6058 22.7636 87.9415 27.995 86.2715 29.4004C86.6286 27.9772 87.9275 25.1246 88.8803 24.1896M73.076 23.8421C74.3511 22.1592 76.2512 19.731 78.0617 19.8718C78.3671 19.892 78.5669 20.1122 78.6042 20.4728C78.7688 21.8982 72.2132 28.5697 70.5743 30.2671C70.9017 28.5311 72.1425 25.0222 73.076 23.8421M111.133 30.1107C109.618 30.6952 108.189 31.2444 105.111 31.4355C103.05 31.5857 101.511 31.4401 101.037 30.4008C102.629 30.0325 105.435 29.6084 105.432 28.2741C105.43 27.1704 103.937 26.619 102.806 26.5984C100.818 26.5454 99.0588 27.5034 98.9312 28.5927C98.8819 29.2453 98.8302 29.613 98.9997 30.1239C98.8115 30.2186 92.4532 32.4791 90.6161 32.5965C86.8599 32.813 86.568 31.8921 86.4352 30.7381C88.9384 28.4292 96.1354 23.5272 96.1174 21.0052C96.1103 20.2802 95.495 19.9236 94.6328 19.8212C92.1014 19.5038 89.353 21.3968 87.4878 23.7063C86.1877 25.2629 85.1042 28.8908 84.8028 30.1984C84.1134 30.6608 76.8121 33.9584 74.9795 34.116C71.2319 34.4107 70.9207 33.2914 70.7656 31.8912C73.2174 29.0913 80.3137 22.7903 80.2473 19.5939C80.2256 18.6886 79.6035 18.2777 78.7388 18.1992C76.2013 17.9496 73.4916 20.4244 71.6737 23.3009C70.4063 25.2485 69.3975 29.6734 69.1227 31.2601C67.9744 32.2233 66.67 33.0436 65.424 33.871C64.209 34.6778 61.9184 36.6613 60.4543 35.3746C60.0137 34.9876 59.8313 34.381 59.7683 33.7971C59.5972 32.2147 60.2098 30.8132 61.1293 29.5664C61.7871 28.6743 62.7384 27.9104 62.8051 26.722C62.818 26.4976 62.8614 26.1756 62.6583 26.0787C61.9475 25.7379 61.3392 26.0035 60.8346 26.5132C60.7187 26.5672 60.6094 26.626 60.5182 26.6911C59.2842 27.5697 57.3767 27.2145 56.0148 26.4555C55.9741 25.9075 55.7829 25.3954 55.1617 25.2982C54.6715 25.2215 52.698 25.4926 52.8568 26.2973C52.9259 26.6454 53.4127 26.9373 53.8448 27.1462C53.8943 28.1207 53.5311 28.869 53.1276 29.7375C52.2558 31.6109 51.3112 33.4288 49.9977 35.0323C49.0825 36.1495 48.0945 37.3967 46.9651 38.2999C46.8467 38.3946 46.7071 38.4894 46.5563 38.4704C46.0884 38.4112 46.4657 36.8625 46.5128 36.5798C46.7943 34.8989 47.2469 33.2411 47.7349 31.61C47.9231 30.9804 48.1171 30.3514 48.3368 29.7323C48.5069 29.252 48.9078 28.6111 48.707 28.1005C48.3989 27.3176 46.9868 27.6656 46.4238 27.823C45.4486 28.0959 44.4423 28.5924 43.7345 29.3324C43.3927 29.6893 44.0356 29.7365 44.2581 29.7277C45.1876 29.6912 46.7227 28.5933 46.4498 29.4553C46.0043 30.8608 45.4909 32.2359 45.109 33.6612C44.7305 35.0759 44.363 36.52 44.2241 37.9812C44.1375 38.892 44.2984 39.9997 45.5352 39.6556C45.5805 39.6427 45.6289 39.6277 45.6735 39.643C45.7182 39.6584 45.7476 39.7007 45.7776 39.7375C46.5278 40.6483 48.4194 38.9337 48.9742 38.4759C51.2705 36.5807 53.9635 32.1147 54.9084 30.1478C55.2664 29.4032 55.67 28.6743 55.8777 27.8828C57.2038 28.1992 58.6077 28.202 59.9167 27.8533C59.6529 28.3688 59.4501 28.8828 59.3117 29.2453C58.1903 32.1847 57.0212 37.9647 61.9306 37.2103C63.373 36.9766 68.6173 33.3816 69.2057 32.9179C69.9061 34.1439 69.5337 36.1811 75.5364 35.3902C77.0572 35.1863 84.2603 31.9451 84.8576 31.5689C85.5384 32.587 85.1311 34.2614 91.1537 33.6343C92.732 33.4665 98.668 31.4198 99.5829 30.9546C100.333 31.9629 101.654 32.4594 104.618 32.2411C108.243 31.985 109.891 31.4054 112.094 30.6121C112.536 30.4474 112.921 30.1456 112.62 29.9739C112.291 29.7884 111.573 29.9616 111.133 30.1107Z" fill="#2A307E"/>
</g>
</svg>
