<svg width="26" height="31" viewBox="0 0 26 31" fill="none" xmlns="http://www.w3.org/2000/svg">
<path d="M16.0982 5.38966C16.0982 8.04257 14.4284 9.77933 12.8236 9.77933C11.2189 9.77933 9.54907 8.04257 9.54907 5.38966C9.54907 2.73675 11.2189 1 12.8236 1C14.4284 1 16.0982 2.73675 16.0982 5.38966Z" fill="#B18DC0" stroke="#B18DC0" stroke-width="2"/>
<mask id="path-2-inside-1_0_3271" fill="white">
<path fill-rule="evenodd" clip-rule="evenodd" d="M12.8237 12.2661L11.5227 10.4076H14.1246L12.8237 12.2661Z"/>
</mask>
<path d="M12.8237 12.2661L11.1852 13.413L12.8237 15.7537L14.4621 13.413L12.8237 12.2661ZM11.5227 10.4076V8.40761H7.68142L9.88426 11.5545L11.5227 10.4076ZM14.1246 10.4076L15.7631 11.5545L17.9659 8.40761H14.1246V10.4076ZM14.4621 11.1192L13.1612 9.26068L9.88426 11.5545L11.1852 13.413L14.4621 11.1192ZM11.5227 12.4076H14.1246V8.40761H11.5227V12.4076ZM12.4862 9.26068L11.1852 11.1192L14.4621 13.413L15.7631 11.5545L12.4862 9.26068Z" fill="#B18DC0" mask="url(#path-2-inside-1_0_3271)"/>
<path d="M12.7991 10.5977C10.6885 16.1532 14.536 16.9412 12.0854 23.4204" stroke="#B18DC0"/>
<path d="M7.54912 9.47841C7.54912 12.1313 5.87934 13.8681 4.27456 13.8681C2.66978 13.8681 1 12.1313 1 9.47841C1 6.8255 2.66978 5.08875 4.27456 5.08875C5.87934 5.08875 7.54912 6.8255 7.54912 9.47841Z" fill="#B18DC0" stroke="#B18DC0" stroke-width="2"/>
<mask id="path-6-inside-2_0_3271" fill="white">
<path fill-rule="evenodd" clip-rule="evenodd" d="M4.27461 16.3549L2.97366 14.4964H5.57556L4.27461 16.3549Z"/>
</mask>
<path d="M4.27461 16.3549L2.63614 17.5018L4.27461 19.8424L5.91307 17.5018L4.27461 16.3549ZM2.97366 14.4964V12.4964H-0.867656L1.33519 15.6433L2.97366 14.4964ZM5.57556 14.4964L7.21403 15.6433L9.41687 12.4964H5.57556L5.57556 14.4964ZM5.91307 15.2079L4.61212 13.3494L1.33519 15.6433L2.63614 17.5018L5.91307 15.2079ZM2.97366 16.4964H5.57556L5.57556 12.4964H2.97366L2.97366 16.4964ZM3.9371 13.3494L2.63614 15.2079L5.91307 17.5018L7.21403 15.6433L3.9371 13.3494Z" fill="#B18DC0" mask="url(#path-6-inside-2_0_3271)"/>
<path d="M5.1197 28.1375C2.6354 22.5819 7.16402 21.7939 4.27966 15.3147" stroke="#B18DC0"/>
<path d="M24.6474 11.3369C24.6474 13.9898 22.9776 15.7266 21.3728 15.7266C19.768 15.7266 18.0983 13.9898 18.0983 11.3369C18.0983 8.68402 19.768 6.94727 21.3728 6.94727C22.9776 6.94727 24.6474 8.68402 24.6474 11.3369Z" fill="#B18DC0" stroke="#B18DC0" stroke-width="2"/>
<ellipse cx="11.5457" cy="2.49208" rx="1.30095" ry="1.67265" transform="rotate(40 11.5457 2.49208)" fill="#EBE6E6" fill-opacity="0.256024"/>
<ellipse cx="2.9965" cy="6.9524" rx="1.30095" ry="1.67265" transform="rotate(40 2.9965 6.9524)" fill="#EBE6E6" fill-opacity="0.256024"/>
<ellipse cx="20.0948" cy="8.81092" rx="1.30095" ry="1.67265" transform="rotate(40 20.0948 8.81092)" fill="#EBE6E6" fill-opacity="0.256024"/>
<mask id="path-13-inside-3_0_3271" fill="white">
<path fill-rule="evenodd" clip-rule="evenodd" d="M21.3728 18.2134L20.0718 16.3549H22.6737L21.3728 18.2134Z"/>
</mask>
<path d="M21.3728 18.2134L19.7343 19.3603L21.3728 21.701L23.0112 19.3603L21.3728 18.2134ZM20.0718 16.3549V14.3549H16.2305L18.4333 17.5018L20.0718 16.3549ZM22.6737 16.3549L24.3122 17.5018L26.515 14.3549H22.6737V16.3549ZM23.0112 17.0665L21.7103 15.2079L18.4333 17.5018L19.7343 19.3603L23.0112 17.0665ZM20.0718 18.3549H22.6737V14.3549H20.0718V18.3549ZM21.0352 15.2079L19.7343 17.0665L23.0112 19.3603L24.3122 17.5018L21.0352 15.2079Z" fill="#B18DC0" mask="url(#path-13-inside-3_0_3271)"/>
<path d="M21.2541 17.1667C23.2674 22.7582 19.4068 23.479 21.7439 30" stroke="#B18DC0"/>
</svg>
