<svg width="29" height="35" viewBox="0 0 29 35" fill="none" xmlns="http://www.w3.org/2000/svg">
<path d="M14.8397 24.3609C13.2218 24.3186 10.5887 24.9149 10.4642 32.4228C11.9741 32.3601 13.5054 32.3259 15.057 32.3259C16.343 32.3259 17.6131 32.3529 18.8709 32.3968C18.6332 29.3526 17.8426 24.439 14.8397 24.3609" stroke="#B18DC0" stroke-width="2"/>
<path fill-rule="evenodd" clip-rule="evenodd" d="M3.05603 33C5.44884 32.7266 7.92224 32.5292 10.464 32.4226C10.589 24.9146 13.222 24.3188 14.84 24.3607C17.8424 24.4392 18.633 29.3529 18.8712 32.3965C21.6109 32.4914 24.2761 32.6883 26.8469 32.976V20.8605H3.05603V33Z" stroke="#B18DC0" stroke-width="2"/>
<path d="M27.7577 20.0361L14.393 4.35767L13.5845 4.46223L2.07903 20.0581C1.88367 20.3228 2.07291 20.6967 2.40141 20.6967H3.08543H26.8758H27.4527C27.7944 20.6967 27.9796 20.2963 27.7577 20.0361" stroke="#B18DC0" stroke-width="2"/>
<path fill-rule="evenodd" clip-rule="evenodd" d="M13.6399 1.10378C13.9046 2.73809 13.568 4.46422 13.568 4.46422L13.5843 4.46218L14.3928 4.35761L20.3281 3.59197C20.4745 3.58075 20.4919 3.36039 20.3465 3.3405C14.2046 2.50549 13.5461 0.526875 13.6399 1.10378Z" stroke="#B18DC0" stroke-width="2"/>
</svg>
