<svg width="34" height="32" viewBox="0 0 34 32" fill="none" xmlns="http://www.w3.org/2000/svg">
<path d="M19.2971 12.7028C16.6844 10.0901 13.8389 8.47382 12.0963 8.46161C11.5845 8.45813 11.1678 8.59238 10.8801 8.88007C9.61171 10.1485 11.323 13.9172 14.7029 17.2971C18.0828 20.677 21.8506 22.3883 23.1199 21.1199C24.3883 19.8514 22.677 16.0827 19.2971 12.7028Z" stroke="#B88AC4" stroke-width="2"/>
<path d="M14.3875 17.6126C11.4808 14.7059 9.8725 11.5051 10.4608 10.0076L10.2505 10.6333L2 30.0001L22 21.5459C20.5033 22.1351 17.295 20.5201 14.3875 17.6126Z" stroke="#B88AC4" stroke-width="2"/>
<path d="M32.7221 11.0557L32.1913 11.5864L31.9259 11.8518L32.2656 12.1915L32.7221 12.648L33.2528 12.1172L33.5182 11.8518L33.1202 11.4537L32.7221 11.0557Z" fill="#B88AC4"/>
<path d="M12.0539 5.38745L11.5072 5.93415L11.2577 6.18362L11.4806 6.40654L12.0539 6.97978L12.4626 6.57108L12.85 6.18362L12.4095 5.74307L12.0539 5.38745Z" fill="#B88AC4"/>
<path d="M17.8874 5.38745L17.2398 6.035L17.0912 6.18362L17.2982 6.39062L17.8874 6.97978L18.6835 6.18362L17.8874 5.38745Z" fill="#B88AC4"/>
<path d="M18.9489 8.56958L18.434 9.08443L18.1527 9.36575L18.5136 9.72667L18.9489 10.1619L19.4107 9.70014L19.745 9.36575L19.3788 8.99951L18.9489 8.56958Z" fill="#B88AC4"/>
<path d="M26.3734 11.2209L26.0178 11.5766L25.5773 12.0171L25.8745 12.3143L26.3734 12.8133L26.8618 12.325L27.1696 12.0171L26.8618 11.7093L26.3734 11.2209Z" fill="#B88AC4"/>
<path d="M26.1087 18.6461L25.4293 19.3255L25.0471 19.7077L25.4027 20.0633L26.1087 20.7692L26.8571 20.0208L27.1702 19.7077L26.9155 19.4529L26.1087 18.6461Z" fill="#B88AC4"/>
<path d="M13.9231 13.0769V13.0769C13.9782 12.993 14.5641 9.80769 14.5641 6.53846C14.5641 5.15558 14.3436 4.08545 13.9083 3.35641C13.1981 2.1675 12.1115 2.18603 12.0936 2.17949H12V0H12.0801C12.1282 0.00217949 13.6885 -0.0512179 14.7955 1.78391C15.4929 2.93904 15.8462 4.53878 15.8462 6.53846C15.8462 10.8974 13.9231 13.0769 13.9231 13.0769Z" fill="#B88AC4"/>
<path d="M30.5 1.53972C29.026 1.56511 28.0022 1.89971 27.4066 2.52199C27.0683 2.87506 26.8768 3.32119 26.8498 3.81733C26.849 3.82656 26.8461 3.87733 26.8461 3.89271C26.8593 4.85267 27.3065 5.68418 27.4636 5.96186C27.4929 6.01417 27.544 6.12032 27.555 6.15878C27.1625 6.13955 26.4537 5.98648 26.0094 5.88648C24.702 5.59341 23.5752 5.33958 22.9014 5.91186C22.6179 6.15416 22.4615 6.51261 22.4615 6.92336C22.4615 7.81025 23.0067 8.59176 23.4444 9.2202C23.6256 9.48019 23.8997 9.87248 23.923 10.0002C23.923 10.3994 23.6578 10.5494 22.2554 10.9494C20.6799 11.3986 18.0769 12.3078 16.6154 14.6154C18.8077 13.077 21.0745 12.8801 22.6369 12.4347C23.9881 12.0501 25.3846 11.6516 25.3846 10.0002C25.3846 9.4025 25.0148 8.87175 24.6224 8.30946C24.3571 7.92871 24.037 7.4695 23.9472 7.10413C24.3498 7.09182 25.177 7.27258 25.7039 7.39104C26.4201 7.5518 27.0785 7.68872 27.6061 7.69103V7.69256C28.2317 7.69256 28.6694 7.35335 28.8535 7.06182L28.9244 6.92029C29.0077 6.70183 29.0384 6.48723 29.0384 6.28877C29.0384 5.7511 28.8104 5.32958 28.7622 5.2465C28.6577 5.08113 28.3457 4.50653 28.3157 3.9404C28.315 3.92809 28.315 3.88886 28.3157 3.88194C28.3259 3.77656 28.3595 3.69272 28.4363 3.61349C28.5598 3.48426 29.0925 3.06659 30.8654 3.07736H31.2307V1.53895C31.2307 1.53895 30.603 1.53742 30.5 1.53972Z" fill="#B88AC4"/>
<path d="M31.7285 17.6923H33.5384C33.5384 17.5864 33.5294 17.4837 33.5131 17.3846C33.1448 15.208 28.8706 14.6154 26.2986 14.6154C20.8687 14.6154 18.1538 16.4615 18.1538 16.4615C18.1538 16.4615 20.8687 15.8461 26.2986 15.8461C26.3529 15.8461 31.7285 15.8966 31.7285 17.6923Z" fill="#B88AC4"/>
</svg>
